<svg width="500" height="500" viewBox="0 0 500 500" fill="none" xmlns="http://www.w3.org/2000/svg">
<rect width="500" height="500" fill="white"/>
<g clip-path="url(#clip0_1501_89)">
<path d="M345.929 323.912L340.108 333.063L343.498 321.15C336.34 313.68 326.43 308.216 326.43 308.216C326.43 308.216 314.227 328.271 317.511 340.608C320.796 352.945 329.276 355.3 338.323 352.891C347.37 350.483 353.558 344.223 350.273 331.886C349.542 329.14 347.954 326.444 345.929 323.912Z" fill="#F2F2F2"/>
<path d="M338.227 333.975L338.389 334.583C340.235 341.661 340.511 347.494 339.206 352C339.188 352.066 339.166 352.13 339.148 352.196L338.844 352.106L338.552 352.016C340.031 347.131 339.371 340.96 337.763 334.785C337.713 334.586 337.662 334.383 337.605 334.183C336.902 331.575 336.039 328.977 335.1 326.481C335.03 326.287 334.955 326.091 334.88 325.894C333.624 322.605 332.251 319.508 330.98 316.839C330.891 316.65 330.799 316.462 330.708 316.277C328.537 311.767 326.697 308.573 326.283 307.867C326.234 307.78 326.205 307.733 326.199 307.722L326.464 307.564L326.466 307.561L326.733 307.402C326.739 307.414 326.836 307.572 327.005 307.868C327.645 308.975 329.343 311.988 331.302 316.038C331.389 316.221 331.481 316.409 331.57 316.598C332.604 318.763 333.701 321.199 334.744 323.784C335.007 324.433 335.258 325.075 335.498 325.711C335.576 325.906 335.651 326.102 335.722 326.296C336.737 328.995 337.572 331.554 338.227 333.975Z" fill="white"/>
<path d="M331.302 316.037C331.107 316.118 330.91 316.2 330.708 316.276C330.159 316.484 329.6 316.664 329.033 316.815C326.617 317.462 324.087 317.558 321.629 317.097C321.545 317.29 321.461 317.484 321.375 317.681C323.967 318.19 326.641 318.1 329.193 317.417C329.799 317.256 330.395 317.063 330.98 316.839C331.179 316.763 331.376 316.681 331.57 316.598C333.171 315.916 334.66 314.994 335.985 313.865C335.811 313.734 335.641 313.605 335.475 313.479C334.218 314.532 332.811 315.394 331.302 316.037Z" fill="white"/>
<path d="M335.498 325.71C335.294 325.777 335.088 325.839 334.88 325.894C334.818 325.914 334.751 325.931 334.688 325.948C332.07 326.645 329.321 326.699 326.677 326.105C324.033 325.51 321.573 324.285 319.504 322.534C319.431 322.744 319.358 322.953 319.289 323.165C321.427 324.925 323.954 326.15 326.659 326.738C329.365 327.327 332.172 327.263 334.848 326.55C334.933 326.528 335.017 326.505 335.101 326.48C335.31 326.421 335.517 326.359 335.722 326.295C338.892 325.275 341.702 323.363 343.814 320.788C343.671 320.636 343.527 320.484 343.38 320.333C341.332 322.854 338.593 324.723 335.498 325.71Z" fill="white"/>
<path d="M338.227 333.975C338.021 334.049 337.814 334.117 337.605 334.182C337.382 334.251 337.158 334.317 336.932 334.377C333.412 335.31 329.685 335.078 326.308 333.715C322.932 332.352 320.087 329.932 318.201 326.817C318.131 327.097 318.059 327.374 317.995 327.652C320.004 330.726 322.931 333.088 326.359 334.404C329.787 335.719 333.543 335.92 337.092 334.98C337.318 334.919 337.543 334.856 337.763 334.785C337.975 334.722 338.182 334.654 338.389 334.583C342.557 333.117 346.012 330.121 348.054 326.204C347.932 325.998 347.801 325.797 347.669 325.594C345.731 329.509 342.345 332.515 338.227 333.975Z" fill="white"/>
<path d="M315.939 115.509L310.118 124.661L313.509 112.747C306.35 105.278 296.44 99.8135 296.44 99.8135C296.44 99.8135 284.237 119.869 287.522 132.206C290.806 144.542 299.287 146.897 308.334 144.489C317.381 142.08 323.568 135.82 320.284 123.484C319.553 120.738 317.965 118.042 315.939 115.509Z" fill="#F2F2F2"/>
<path d="M308.238 125.573L308.4 126.181C310.245 133.259 310.521 139.091 309.216 143.597C309.198 143.663 309.177 143.727 309.159 143.793L308.854 143.703L308.563 143.613C310.041 138.729 309.382 132.557 307.773 126.383C307.723 126.184 307.673 125.981 307.616 125.78C306.912 123.173 306.05 120.575 305.111 118.078C305.04 117.884 304.965 117.688 304.89 117.492C303.634 114.203 302.262 111.106 300.99 108.437C300.901 108.248 300.809 108.06 300.718 107.874C298.547 103.365 296.707 100.17 296.294 99.4648C296.245 99.3779 296.216 99.3307 296.21 99.3195L296.474 99.162L296.476 99.1582L296.744 99C296.75 99.0112 296.847 99.1692 297.016 99.4659C297.655 100.572 299.354 103.586 301.312 107.636C301.4 107.819 301.492 108.007 301.581 108.196C302.615 110.361 303.711 112.796 304.754 115.381C305.017 116.03 305.269 116.673 305.509 117.308C305.587 117.503 305.661 117.7 305.732 117.893C306.747 120.592 307.583 123.152 308.238 125.573Z" fill="white"/>
<path d="M301.312 107.636C301.118 107.717 300.92 107.798 300.718 107.875C300.169 108.083 299.61 108.263 299.043 108.414C296.628 109.06 294.097 109.157 291.639 108.696C291.555 108.889 291.471 109.082 291.385 109.279C293.977 109.788 296.652 109.698 299.204 109.016C299.809 108.855 300.405 108.661 300.99 108.437C301.189 108.362 301.387 108.28 301.581 108.196C303.182 107.514 304.67 106.593 305.995 105.464C305.822 105.333 305.652 105.204 305.486 105.077C304.228 106.131 302.822 106.993 301.312 107.636Z" fill="white"/>
<path d="M305.509 117.309C305.304 117.376 305.098 117.437 304.891 117.493C304.828 117.512 304.762 117.53 304.699 117.547C302.08 118.244 299.332 118.298 296.688 117.703C294.044 117.109 291.583 115.884 289.515 114.133C289.442 114.342 289.369 114.552 289.299 114.764C291.437 116.523 293.964 117.748 296.67 118.337C299.376 118.926 302.183 118.861 304.859 118.149C304.943 118.126 305.028 118.104 305.111 118.079C305.321 118.019 305.527 117.958 305.732 117.894C308.903 116.873 311.712 114.962 313.825 112.387C313.681 112.235 313.537 112.083 313.391 111.932C311.343 114.453 308.603 116.321 305.509 117.309Z" fill="white"/>
<path d="M308.238 125.572C308.032 125.647 307.824 125.715 307.616 125.78C307.393 125.849 307.168 125.915 306.943 125.975C303.423 126.908 299.696 126.675 296.319 125.313C292.942 123.95 290.098 121.53 288.212 118.415C288.141 118.695 288.07 118.972 288.005 119.25C290.014 122.324 292.941 124.686 296.369 126.001C299.798 127.317 303.553 127.518 307.103 126.577C307.329 126.517 307.554 126.454 307.773 126.383C307.985 126.32 308.193 126.252 308.4 126.18C312.567 124.714 316.022 121.719 318.065 117.801C317.942 117.595 317.811 117.395 317.68 117.191C315.742 121.107 312.355 124.113 308.238 125.572Z" fill="white"/>
<path d="M155.873 339.273L145.028 339.322L156.883 335.735C159.299 325.675 158.539 314.384 158.539 314.384C158.539 314.384 135.07 314.957 126.466 324.389C117.862 333.82 120.465 342.228 127.381 348.538C134.297 354.848 142.908 356.67 151.513 347.238C153.428 345.139 154.837 342.346 155.873 339.273Z" fill="#F2F2F2"/>
<path d="M143.244 338.233L142.82 338.698C137.862 344.076 133.104 347.461 128.608 348.799C128.543 348.819 128.477 348.835 128.412 348.856L128.323 348.551L128.241 348.257C133.15 346.861 137.986 342.97 142.311 338.28C142.452 338.13 142.595 337.978 142.733 337.822C144.547 335.82 146.266 333.69 147.859 331.551C147.984 331.387 148.108 331.218 148.233 331.049C150.321 328.214 152.185 325.386 153.743 322.873C153.854 322.696 153.963 322.517 154.07 322.34C156.69 318.076 158.383 314.801 158.753 314.072C158.8 313.984 158.824 313.934 158.83 313.923L159.106 314.06L159.11 314.06L159.388 314.199C159.381 314.211 159.301 314.378 159.143 314.68C158.558 315.816 156.94 318.874 154.592 322.711C154.485 322.883 154.376 323.062 154.265 323.239C153.003 325.28 151.546 327.519 149.935 329.793C149.531 330.365 149.127 330.924 148.722 331.47C148.6 331.641 148.475 331.81 148.35 331.974C146.628 334.287 144.926 336.373 143.244 338.233Z" fill="white"/>
<path d="M154.592 322.711C154.418 322.591 154.243 322.469 154.07 322.34C153.598 321.991 153.144 321.618 152.711 321.222C150.861 319.539 149.412 317.463 148.471 315.146C148.264 315.179 148.056 315.213 147.843 315.247C148.816 317.703 150.337 319.904 152.291 321.683C152.754 322.105 153.239 322.502 153.743 322.873C153.915 323 154.09 323.122 154.265 323.239C155.705 324.218 157.284 324.972 158.95 325.477C158.967 325.26 158.983 325.047 159 324.839C157.434 324.351 155.948 323.633 154.592 322.711Z" fill="white"/>
<path d="M148.722 331.47C148.555 331.334 148.392 331.194 148.233 331.049C148.183 331.007 148.132 330.961 148.084 330.917C146.082 329.091 144.551 326.807 143.622 324.262C142.693 321.716 142.394 318.983 142.749 316.297C142.533 316.349 142.317 316.4 142.101 316.457C141.777 319.207 142.112 321.995 143.079 324.589C144.046 327.184 145.618 329.511 147.664 331.377C147.728 331.436 147.793 331.495 147.859 331.551C148.022 331.696 148.185 331.836 148.35 331.974C150.922 334.09 154.05 335.42 157.358 335.806C157.408 335.603 157.458 335.4 157.506 335.195C154.278 334.834 151.225 333.54 148.722 331.47Z" fill="white"/>
<path d="M143.244 338.232C143.07 338.099 142.901 337.961 142.733 337.821C142.554 337.67 142.378 337.518 142.205 337.36C139.518 334.903 137.699 331.641 137.02 328.064C136.342 324.486 136.84 320.785 138.441 317.515C138.168 317.607 137.896 317.696 137.627 317.792C136.127 321.144 135.722 324.883 136.468 328.479C137.214 332.074 139.075 335.343 141.785 337.82C141.958 337.978 142.132 338.133 142.311 338.279C142.479 338.424 142.648 338.561 142.82 338.697C146.306 341.411 150.693 342.699 155.093 342.299C155.2 342.085 155.298 341.867 155.399 341.646C151.057 342.132 146.697 340.907 143.244 338.232Z" fill="white"/>
<path d="M119.867 347.782L126.099 347.782L129.063 323.745L119.866 323.746L119.867 347.782Z" fill="#FFB6B6"/>
<path d="M118.278 345.748L130.55 345.747H130.551C132.625 345.747 134.614 346.571 136.081 348.038C137.547 349.505 138.371 351.494 138.372 353.568V353.822L118.278 353.823L118.278 345.748Z" fill="#2F2E41"/>
<path d="M70.5623 347.782L76.794 347.782L79.7584 323.745L70.5613 323.746L70.5623 347.782Z" fill="#FFB6B6"/>
<path d="M68.9729 345.748L81.2452 345.747H81.2458C83.3199 345.747 85.3091 346.571 86.7758 348.038C88.2425 349.505 89.0665 351.494 89.0667 353.568V353.822L68.9733 353.823L68.9729 345.748Z" fill="#2F2E41"/>
<path d="M81.1309 249.05L76.9308 252.915L72.197 299.616L69.0105 336.801L78.6402 338.1L101.997 274.563L119.088 337.799L130.61 338.1L122.963 255.556L81.1309 249.05Z" fill="#2F2E41"/>
<path d="M101.428 179.995C108.035 179.995 113.391 174.639 113.391 168.032C113.391 161.425 108.035 156.068 101.428 156.068C94.8206 156.068 89.4644 161.425 89.4644 168.032C89.4644 174.639 94.8206 179.995 101.428 179.995Z" fill="#FFB9B9"/>
<path d="M95.3052 162.477C95.3052 162.477 93.8789 165.563 99.5841 164.329C99.5841 164.329 101.724 165.563 101.724 163.711C101.724 163.711 104.576 166.798 105.289 164.946C106.002 163.094 107.429 165.563 107.429 165.563L108.855 162.477L110.281 164.329H115.273C115.273 164.329 116.699 151.982 99.5841 153.217C82.4687 154.451 90.8886 174.013 90.8886 174.013C90.8886 174.013 91.0264 170.502 92.4527 172.354C93.879 174.206 95.3052 162.477 95.3052 162.477Z" fill="#2F2E41"/>
<path d="M110.543 183.9L93.6734 182.844L78.6402 186.832L80.919 225.57L76.9312 252.915C76.9312 252.915 98.8105 266.29 123.646 255.764L121.287 249.558C121.287 249.558 121.205 240.061 119.213 238.202C117.22 236.342 117.379 221.013 117.379 221.013L124.785 192.528L110.543 183.9Z" fill="#3F3D56"/>
<path d="M82.6559 188.054L78.6401 186.831C78.6401 186.831 72.3859 187.04 69.134 194.155C65.8821 201.269 63.8489 211.435 63.8489 211.435L84.503 212.182L82.6559 188.054Z" fill="#3F3D56"/>
<path d="M130.596 255.966L129.928 213.978L121.004 215.316L122.975 255.097C122.164 255.763 121.567 256.653 121.259 257.657C120.95 258.66 120.944 259.732 121.241 260.738C121.538 261.745 122.125 262.642 122.929 263.317C123.732 263.992 124.717 264.415 125.76 264.534C126.803 264.653 127.857 264.462 128.792 263.985C129.727 263.508 130.501 262.766 131.017 261.852C131.533 260.938 131.768 259.893 131.693 258.846C131.618 257.799 131.237 256.797 130.596 255.966Z" fill="#FFB9B9"/>
<path d="M119.762 196.187L124.785 192.528C124.785 192.528 134.437 200.077 134.47 216.685L121.004 219.951L113.391 209L119.762 196.187Z" fill="#3F3D56"/>
<path d="M390.662 347.759L396.894 347.758L399.858 323.722L390.661 323.722L390.662 347.759Z" fill="#9E616A"/>
<path d="M389.073 345.723L401.345 345.723C403.419 345.723 405.409 346.547 406.875 348.013C408.342 349.48 409.166 351.469 409.166 353.543V353.798L389.073 353.798L389.073 345.723Z" fill="#2F2E41"/>
<path d="M353.778 342.459L359.719 344.339L369.795 322.316L361.027 319.542L353.778 342.459Z" fill="#9E616A"/>
<path d="M352.876 340.04L364.577 343.741C366.554 344.367 368.203 345.753 369.159 347.593C370.115 349.434 370.301 351.579 369.675 353.557L369.599 353.799L350.441 347.739L352.876 340.04Z" fill="#2F2E41"/>
<path d="M367.809 237.981L364.351 247.735L364.253 300.388L354.446 336.438L366.485 339.797L379.782 305.806L384.047 275.949L389.668 305.979L388.894 341.672H401.525L402.478 286.669C402.746 271.222 400.043 255.867 394.517 241.44L367.809 237.981Z" fill="#2F2E41"/>
<path d="M363.691 198.474H384.106L392.637 207.004L395.185 242.266L364.351 247.227L354.446 213.583L359.84 199.284L363.691 198.474Z" fill="#6C63FF"/>
<path d="M356.349 213.92L324.916 202.093L324.097 197.204L343.921 180.431L350.519 185.379L338.56 198.474L359.84 199.284L356.349 213.92Z" fill="#6C63FF"/>
<path d="M347.733 187.292C350.541 187.292 352.816 185.016 352.816 182.209C352.816 179.402 350.541 177.126 347.733 177.126C344.926 177.126 342.65 179.402 342.65 182.209C342.65 185.016 344.926 187.292 347.733 187.292Z" fill="#9E616A"/>
<path d="M359.522 188.612L361.819 178.255C362.638 174.577 364.883 171.375 368.062 169.352C371.241 167.329 375.093 166.651 378.772 167.467C382.451 168.283 385.655 170.526 387.681 173.703C389.706 176.88 390.388 180.731 389.576 184.411L387.279 194.768C387.169 195.262 386.867 195.692 386.44 195.964C386.013 196.236 385.495 196.328 385.001 196.219L360.973 190.89C360.478 190.78 360.048 190.478 359.776 190.051C359.504 189.624 359.413 189.107 359.522 188.612Z" fill="#2F2E41"/>
<path d="M372.445 192.928C378.201 192.928 382.867 188.262 382.867 182.505C382.867 176.749 378.201 172.083 372.445 172.083C366.689 172.083 362.022 176.749 362.022 182.505C362.022 188.262 366.689 192.928 372.445 192.928Z" fill="#9E616A"/>
<path d="M358.351 178.355C359 175.445 360.777 172.911 363.291 171.31C365.806 169.708 368.853 169.169 371.765 169.811L373.836 170.271C376.746 170.919 379.28 172.696 380.882 175.211C382.483 177.725 383.022 180.772 382.38 183.684L382.334 183.891L377.956 182.92L377.39 178.408L376.165 182.523L373.902 182.021L373.617 179.745L372.998 181.821L358.305 178.562L358.351 178.355Z" fill="#2F2E41"/>
<path d="M368.875 193.864C368.731 193.54 368.682 193.182 368.733 192.832C368.783 192.481 368.932 192.152 369.162 191.882C372.283 188.193 377.067 181.16 374.043 175.498L373.825 175.091L385.669 177.717L381.725 195.498L370.546 195.011C370.432 195.006 370.32 194.991 370.209 194.967C369.916 194.901 369.642 194.768 369.41 194.576C369.178 194.384 368.995 194.14 368.875 193.864Z" fill="#2F2E41"/>
<path d="M499.395 354.418H0.605177C0.444966 354.418 0.291475 354.354 0.178352 354.241C0.0652295 354.127 0.00170898 353.973 0.00170898 353.813C0.00170898 353.653 0.0652295 353.499 0.178352 353.386C0.291475 353.272 0.444966 353.208 0.605177 353.208H499.395C499.555 353.208 499.709 353.272 499.823 353.385C499.936 353.499 500 353.653 500 353.813C500 353.974 499.936 354.128 499.823 354.241C499.709 354.355 499.555 354.418 499.395 354.418Z" fill="#CACACA"/>
<path d="M252.095 204.584H90.8044C89.58 204.584 88.3677 204.825 87.2365 205.294C86.1053 205.762 85.0775 206.449 84.2117 207.315C83.346 208.181 82.6592 209.208 82.1907 210.34C81.7221 211.471 81.481 212.683 81.481 213.907V252.698C81.481 253.923 81.7221 255.135 82.1906 256.266C82.6592 257.397 83.346 258.425 84.2117 259.291C85.0775 260.157 86.1053 260.843 87.2365 261.312C88.3676 261.78 89.58 262.022 90.8044 262.022H93.1718V269.03C93.1718 269.455 93.2979 269.871 93.5342 270.224C93.7704 270.578 94.1063 270.854 94.4992 271.016C94.892 271.179 95.3244 271.222 95.7415 271.139C96.1586 271.056 96.5417 270.851 96.8424 270.55L105.371 262.022H252.095C253.319 262.022 254.532 261.78 255.663 261.312C256.794 260.843 257.822 260.157 258.688 259.291C259.553 258.425 260.24 257.397 260.709 256.266C261.177 255.135 261.418 253.923 261.418 252.698V213.907C261.418 212.683 261.177 211.471 260.709 210.34C260.24 209.208 259.553 208.181 258.688 207.315C257.822 206.449 256.794 205.762 255.663 205.294C254.532 204.825 253.319 204.584 252.095 204.584Z" fill="#E6E6E6"/>
<path d="M213.304 257.193H90.8046C89.6129 257.191 88.4704 256.718 87.6278 255.875C86.7851 255.032 86.3112 253.89 86.3098 252.698V213.908C86.3112 212.716 86.7852 211.574 87.6277 210.731C88.4703 209.888 89.6127 209.414 90.8043 209.413H252.095C253.286 209.414 254.429 209.888 255.272 210.731C256.114 211.574 256.588 212.716 256.59 213.908C256.577 225.384 252.012 236.386 243.897 244.501C235.783 252.615 224.78 257.18 213.304 257.193Z" fill="white"/>
<path d="M205.675 217.8H137.563C135.879 217.8 134.513 219.165 134.513 220.85V220.85C134.513 222.534 135.879 223.899 137.563 223.899H205.675C207.359 223.899 208.725 222.534 208.725 220.85C208.725 219.165 207.359 217.8 205.675 217.8Z" fill="#6C63FF"/>
<path d="M220.162 229.999H123.077C121.392 229.999 120.027 231.364 120.027 233.049V233.049C120.027 234.733 121.392 236.099 123.077 236.099H220.162C221.846 236.099 223.211 234.733 223.211 233.049C223.211 231.364 221.846 229.999 220.162 229.999Z" fill="#E6E6E6"/>
<path d="M220.162 242.198H123.077C121.392 242.198 120.027 243.564 120.027 245.248V245.248C120.027 246.932 121.392 248.298 123.077 248.298H220.162C221.846 248.298 223.211 246.932 223.211 245.248C223.211 243.564 221.846 242.198 220.162 242.198Z" fill="#E6E6E6"/>
<path d="M481.885 231.593H365.246C364.36 231.593 363.483 231.767 362.665 232.106C361.847 232.445 361.104 232.941 360.478 233.568C359.852 234.194 359.355 234.937 359.016 235.755C358.678 236.573 358.503 237.45 358.503 238.335V266.387C358.503 267.273 358.678 268.149 359.016 268.967C359.355 269.785 359.852 270.529 360.478 271.155C361.104 271.781 361.847 272.278 362.665 272.616C363.483 272.955 364.36 273.13 365.246 273.13H366.958V278.198C366.958 278.505 367.049 278.806 367.22 279.062C367.39 279.317 367.633 279.517 367.917 279.634C368.202 279.752 368.514 279.783 368.816 279.723C369.117 279.663 369.395 279.515 369.612 279.297L375.78 273.13H481.885C482.77 273.13 483.647 272.955 484.465 272.616C485.283 272.278 486.027 271.781 486.653 271.155C487.279 270.529 487.775 269.785 488.114 268.967C488.453 268.149 488.627 267.273 488.627 266.387V238.335C488.627 237.45 488.453 236.573 488.114 235.755C487.775 234.937 487.279 234.194 486.653 233.568C486.026 232.941 485.283 232.445 484.465 232.106C483.647 231.767 482.77 231.593 481.885 231.593Z" fill="#E6E6E6"/>
<path d="M481.885 269.708H365.246C364.365 269.707 363.521 269.357 362.899 268.735C362.276 268.112 361.926 267.268 361.925 266.388V238.335C361.926 237.455 362.276 236.611 362.899 235.988C363.521 235.366 364.365 235.016 365.246 235.015H453.833C462.151 235.024 470.125 238.333 476.007 244.214C481.888 250.096 485.197 258.07 485.206 266.388C485.205 267.268 484.855 268.112 484.232 268.735C483.61 269.357 482.766 269.707 481.885 269.708Z" fill="white"/>
<path d="M448.316 241.15H399.06C397.842 241.15 396.854 242.138 396.854 243.356C396.854 244.574 397.842 245.561 399.06 245.561H448.316C449.534 245.561 450.522 244.574 450.522 243.356C450.522 242.138 449.534 241.15 448.316 241.15Z" fill="#6C63FF"/>
<path d="M458.792 249.973H388.584C387.366 249.973 386.378 250.96 386.378 252.178C386.378 253.396 387.366 254.384 388.584 254.384H458.792C460.01 254.384 460.997 253.396 460.997 252.178C460.997 250.96 460.01 249.973 458.792 249.973Z" fill="#E6E6E6"/>
<path d="M458.792 258.794H388.584C387.366 258.794 386.378 259.781 386.378 260.999C386.378 262.218 387.366 263.205 388.584 263.205H458.792C460.01 263.205 460.997 262.218 460.997 260.999C460.997 259.781 460.01 258.794 458.792 258.794Z" fill="#E6E6E6"/>
<path d="M233.088 132.983H349.728C350.613 132.983 351.49 133.158 352.308 133.497C353.126 133.835 353.869 134.332 354.495 134.958C355.121 135.584 355.618 136.328 355.957 137.146C356.296 137.964 356.47 138.84 356.47 139.726V167.778C356.47 168.663 356.296 169.54 355.957 170.358C355.618 171.176 355.121 171.919 354.495 172.545C353.869 173.172 353.126 173.668 352.308 174.007C351.49 174.346 350.613 174.52 349.728 174.52H348.016V179.588C348.016 179.896 347.924 180.197 347.753 180.452C347.583 180.708 347.34 180.907 347.056 181.025C346.772 181.143 346.459 181.173 346.157 181.113C345.856 181.053 345.579 180.905 345.361 180.688L339.194 174.52H233.088C232.203 174.52 231.326 174.346 230.508 174.007C229.69 173.668 228.947 173.172 228.321 172.545C227.694 171.919 227.198 171.176 226.859 170.358C226.52 169.54 226.346 168.663 226.346 167.778V139.726C226.346 138.84 226.52 137.964 226.859 137.146C227.198 136.328 227.694 135.584 228.321 134.958C228.947 134.332 229.69 133.835 230.508 133.497C231.326 133.158 232.203 132.983 233.088 132.983Z" fill="#E6E6E6"/>
<path d="M349.728 171.099H261.14C252.823 171.089 244.848 167.781 238.967 161.9C233.085 156.018 229.777 148.044 229.767 139.726C229.768 138.846 230.118 138.002 230.741 137.379C231.364 136.757 232.208 136.406 233.088 136.405H349.728C350.608 136.406 351.452 136.756 352.075 137.379C352.697 138.002 353.047 138.846 353.048 139.726V167.778C353.047 168.658 352.697 169.503 352.075 170.125C351.452 170.748 350.608 171.098 349.728 171.099Z" fill="white"/>
<path d="M266.657 146.951H315.913C317.131 146.951 318.119 145.964 318.119 144.746C318.119 143.528 317.131 142.54 315.913 142.54H266.657C265.439 142.54 264.452 143.528 264.452 144.746C264.452 145.964 265.439 146.951 266.657 146.951Z" fill="#6C63FF"/>
<path d="M256.181 155.773H326.389C327.608 155.773 328.595 154.786 328.595 153.568C328.595 152.35 327.608 151.362 326.389 151.362H256.181C254.963 151.362 253.976 152.35 253.976 153.568C253.976 154.786 254.963 155.773 256.181 155.773Z" fill="#E6E6E6"/>
<path d="M256.181 164.596H326.389C327.608 164.596 328.595 163.608 328.595 162.39C328.595 161.172 327.608 160.185 326.389 160.185H256.181C254.963 160.185 253.976 161.172 253.976 162.39C253.976 163.608 254.963 164.596 256.181 164.596Z" fill="#E6E6E6"/>
<path d="M98.6674 203.811C98.6674 202.395 98.1051 201.038 97.1042 200.037C96.1033 199.036 94.7457 198.474 93.3303 198.474C91.9148 198.474 90.5572 199.036 89.5563 200.037C88.5554 201.038 87.9931 202.395 87.9931 203.811C87.9931 203.863 87.9993 203.913 88.0008 203.965L78.6402 213.326L79.3521 211.689L68.6778 211.181L67.1206 222.451C66.9842 223.491 67.1742 224.549 67.6642 225.476C68.1543 226.404 68.9203 227.157 69.8566 227.631C70.7928 228.105 71.8531 228.276 72.8909 228.122C73.9288 227.967 74.8931 227.494 75.6508 226.768L94.1021 209.086C95.3697 208.901 96.5285 208.267 97.3668 207.298C98.205 206.33 98.6667 205.092 98.6674 203.811Z" fill="#FFB9B9"/>
<path d="M383.294 198.688L416.544 203.415L418.403 208.01L402.689 228.684L395.175 225.284L404.009 209.908L383.06 213.732L383.294 198.688Z" fill="#6C63FF"/>
<path d="M398.055 234.563C400.862 234.563 403.138 232.288 403.138 229.48C403.138 226.673 400.862 224.397 398.055 224.397C395.247 224.397 392.972 226.673 392.972 229.48C392.972 232.288 395.247 234.563 398.055 234.563Z" fill="#9E616A"/>
</g>
<defs>
<clipPath id="clip0_1501_89">
<rect width="500" height="255.418" fill="white" transform="translate(0 99)"/>
</clipPath>
</defs>
</svg>
